<?xml version="1.0" encoding="UTF-8"?>
<svg version="1.1" xmlns="http://www.w3.org/2000/svg" width="512" height="512">
<path d="M0 0 C1.01790619 0.00215515 2.03581238 0.0043103 3.08456421 0.00653076 C17.69363523 0.05620146 32.02575853 0.30709809 46.375 3.3125 C47.34985352 3.51117676 48.32470703 3.70985352 49.32910156 3.91455078 C97.7109774 14.03517194 141.69928269 35.9516877 177.375 70.3125 C178.3640332 71.26068604 178.3640332 71.26068604 179.37304688 72.22802734 C188.86130305 81.37247479 197.6012044 90.66984009 205.375 101.3125 C206.23306152 102.46355017 207.09113451 103.61459177 207.94921875 104.765625 C213.98736829 112.95680614 219.34595521 121.47054105 224.375 130.3125 C224.73948242 130.94430176 225.10396484 131.57610352 225.47949219 132.22705078 C247.08534998 169.97532572 256.85198095 212.74189997 256.6875 255.9375 C256.68534485 256.95540619 256.6831897 257.97331238 256.68096924 259.02206421 C256.63129854 273.63113523 256.38040191 287.96325853 253.375 302.3125 C253.07698486 303.77478027 253.07698486 303.77478027 252.77294922 305.26660156 C242.65232806 353.6484774 220.7358123 397.63678269 186.375 433.3125 C185.74287598 433.97185547 185.11075195 434.63121094 184.45947266 435.31054688 C175.31502521 444.79880305 166.01765991 453.5387044 155.375 461.3125 C154.22394983 462.17056152 153.07290823 463.02863451 151.921875 463.88671875 C143.73224019 469.92427396 135.22961724 475.30707302 126.375 480.3125 C125.66778809 480.7146875 124.96057617 481.116875 124.23193359 481.53125 C101.09654164 494.5566741 75.92537591 503.30551461 49.9375 508.625 C49.21860596 508.77235596 48.49971191 508.91971191 47.7590332 509.0715332 C33.08339502 511.86090125 18.55831162 512.66142619 3.64770508 512.62817383 C0.70811513 512.6250221 -2.2304558 512.64854926 -5.16992188 512.67382812 C-18.54306192 512.71848737 -31.43916711 511.51301542 -44.625 509.3125 C-46.33055054 509.03031616 -46.33055054 509.03031616 -48.07055664 508.74243164 C-91.33802759 500.97044532 -132.38793216 480.98345309 -165.625 452.3125 C-166.37007813 451.67828125 -167.11515625 451.0440625 -167.8828125 450.390625 C-181.38779833 438.57948485 -194.05918743 425.82889772 -204.625 411.3125 C-205.48149066 410.16255169 -206.33826433 409.01281411 -207.1953125 407.86328125 C-213.23534209 399.67315742 -218.61867614 391.16870382 -223.625 382.3125 C-224.0271875 381.60528809 -224.429375 380.89807617 -224.84375 380.16943359 C-237.8691741 357.03404164 -246.61801461 331.86287591 -251.9375 305.875 C-252.08485596 305.15610596 -252.23221191 304.43721191 -252.3840332 303.6965332 C-255.35789088 288.05024391 -255.99800362 272.57681954 -255.9375 256.6875 C-255.93534485 255.66959381 -255.9331897 254.65168762 -255.93096924 253.60293579 C-255.88129854 238.99386477 -255.63040191 224.66174147 -252.625 210.3125 C-252.42632324 209.33764648 -252.22764648 208.36279297 -252.02294922 207.35839844 C-241.90232806 158.9765226 -219.9858123 114.98821731 -185.625 79.3125 C-184.99287598 78.65314453 -184.36075195 77.99378906 -183.70947266 77.31445312 C-174.56502521 67.82619695 -165.26765991 59.0862956 -154.625 51.3125 C-153.47394983 50.45443848 -152.32290823 49.59636549 -151.171875 48.73828125 C-142.98224019 42.70072604 -134.47961724 37.31792698 -125.625 32.3125 C-124.91778809 31.9103125 -124.21057617 31.508125 -123.48193359 31.09375 C-100.34654164 18.0683259 -75.17537591 9.31948539 -49.1875 4 C-48.46860596 3.85264404 -47.74971191 3.70528809 -47.0090332 3.5534668 C-31.36274391 0.57960912 -15.88931954 -0.06050362 0 0 Z " fill="#FC5C3A" transform="translate(255.625,-0.3125)"/>
<path d="M0 0 C15.0412447 12.90458406 25.55535198 31.06330286 27.83984375 50.8828125 C27.96119198 52.52746829 28.06566759 54.17346542 28.15234375 55.8203125 C28.20519531 56.59761719 28.25804687 57.37492187 28.3125 58.17578125 C28.8284576 71.92717281 24.81317398 84.63812101 15.90234375 95.0703125 C9.08939052 102.20505017 1.77611757 106.02857702 -7.09765625 110.0703125 C-16.20078797 114.2203873 -26.15519915 119.28162685 -31.84765625 127.8203125 C-32.50765625 127.8203125 -33.16765625 127.8203125 -33.84765625 127.8203125 C-34.23630859 128.64208984 -34.23630859 128.64208984 -34.6328125 129.48046875 C-35.84765625 131.8203125 -35.84765625 131.8203125 -37.46875 134.37890625 C-44.39214623 145.35211705 -46.66497951 155.13051986 -45.00585938 167.90893555 C-44.60809622 171.56360071 -44.7999444 173.71668832 -46.34765625 177.078125 C-49.4062706 180.43304262 -52.31261335 181.94197072 -56.41015625 183.7578125 C-57.85493754 184.44094544 -59.29764695 185.12847697 -60.73828125 185.8203125 C-61.44146484 186.15675781 -62.14464844 186.49320313 -62.86914062 186.83984375 C-75.89693487 193.29586814 -86.14057536 203.014616 -96.22265625 213.2578125 C-118.72953244 235.99858882 -146.64332276 251.08869387 -179.10302734 252.11035156 C-198.58028867 252.74204652 -216.34453121 255.99889744 -233.97265625 264.5703125 C-234.56900879 264.85672607 -235.16536133 265.14313965 -235.77978516 265.43823242 C-247.24119313 271.27009353 -256.74029747 279.07623528 -265.6550293 288.21606445 C-267.19376168 289.79223558 -268.74884409 291.3508906 -270.30664062 292.90820312 C-275.46560965 297.2242845 -275.46560965 297.2242845 -277.84765625 302.8203125 C-285.22787719 300.8511863 -291.98028178 298.1480815 -298.84765625 294.8203125 C-299.84659912 294.33828369 -300.84554199 293.85625488 -301.87475586 293.35961914 C-320.66579641 284.13111369 -337.94122204 272.41264066 -353.84765625 258.8203125 C-354.59660156 258.18351562 -355.34554687 257.54671875 -356.1171875 256.890625 C-369.61286246 245.07328782 -382.2832365 232.33479662 -392.84765625 217.8203125 C-393.70414691 216.67036419 -394.56092058 215.52062661 -395.41796875 214.37109375 C-401.45799834 206.18096992 -406.84133239 197.67651632 -411.84765625 188.8203125 C-412.24984375 188.11310059 -412.65203125 187.40588867 -413.06640625 186.67724609 C-425.19010736 165.14346917 -436.50269776 139.64756053 -438.84765625 114.8203125 C-438.51765625 115.8103125 -438.18765625 116.8003125 -437.84765625 117.8203125 C-412.63473142 117.78535776 -412.63473142 117.78535776 -387.84765625 113.8203125 C-386.80996094 113.55476562 -385.77226562 113.28921875 -384.703125 113.015625 C-369.6780551 108.56521111 -357.38649239 99.99282197 -346.03515625 89.4453125 C-322.64420527 67.75740638 -297.77774598 59.51600791 -266.18684769 59.54591751 C-263.87011736 59.54690885 -261.55381932 59.53364398 -259.2371521 59.51693726 C-252.66334229 59.47142908 -246.08958778 59.44609889 -239.515625 59.43945312 C-215.97144379 59.40492136 -195.31838817 58.62297566 -173.84765625 47.8203125 C-172.78933594 47.29695313 -171.73101562 46.77359375 -170.640625 46.234375 C-160.1810928 40.61391864 -152.25609897 32.31511977 -144.03515625 23.9140625 C-107.77508485 -13.08340843 -45.67482538 -34.96097745 0 0 Z " fill="#FD873F" transform="translate(443.84765625,193.1796875)"/>
<path d="M0 0 C2.1875 2.8125 2.1875 2.8125 2.75 5.875 C2.02886201 9.64094286 1.17970859 10.40869828 -1.8125 12.8125 C-4.92534177 14.30607878 -8.1392434 15.48873036 -11.375 16.6875 C-23.66825781 21.45011975 -33.33226948 26.48428484 -42.8125 35.8125 C-43.50077881 36.44623535 -44.18905762 37.0799707 -44.89819336 37.73291016 C-50.62140045 43.15135241 -54.39748093 48.65908404 -58.125 55.5625 C-70.43145354 77.25943464 -87.73899936 90.79536488 -111.4375 98.3125 C-123.52517943 102.20278763 -132.80518056 107.91677567 -141.8125 116.8125 C-142.44800781 117.38742188 -143.08351563 117.96234375 -143.73828125 118.5546875 C-152.42179314 126.60282048 -157.68323902 137.90224638 -163.25 148.1875 C-164.20422852 149.91033203 -164.20422852 149.91033203 -165.17773438 151.66796875 C-165.77779297 152.77527344 -166.37785156 153.88257813 -166.99609375 155.0234375 C-167.80904907 156.51302979 -167.80904907 156.51302979 -168.63842773 158.03271484 C-169.85093286 160.90349533 -170.14610588 162.73458455 -169.8125 165.8125 C-168.78393711 167.0373915 -168.78393711 167.0373915 -166.62109375 167.15625 C-162.80948581 166.68973887 -160.70323476 164.71560935 -157.875 162.3125 C-148.26457096 154.61488582 -138.34089611 149.15323822 -126.78125 144.98828125 C-125.82557632 144.64266647 -124.86990265 144.2970517 -123.88526917 143.94096375 C-113.31159483 140.18378311 -102.55594274 137.13197419 -91.75 134.125 C-69.58224739 128.62538329 -69.58224739 128.62538329 -49.8125 117.8125 C-49.1525 117.8125 -48.4925 117.8125 -47.8125 117.8125 C-47.8125 117.1525 -47.8125 116.4925 -47.8125 115.8125 C-46.73729911 114.9221474 -45.62458488 114.0770995 -44.5 113.25 C-40.11180973 109.5595785 -37.36723729 105.31632605 -34.375 100.5 C-19.40564206 76.60912044 0.73938684 70.30249927 26.625 62.8125 C57.48247599 54.30000122 57.48247599 54.30000122 82.58203125 35.265625 C86.47139979 31.60367081 89.7628845 29.97334369 95.0625 29.375 C100.99682069 29.62510547 105.58280407 32.12551197 109.625 36.375 C112.78451508 41.30384352 112.93407239 46.13606125 112.1875 51.8125 C108.60138954 59.83901641 101.32076045 66.1712331 95.17578125 72.27026367 C93.44249989 73.99502469 91.72874404 75.73766017 90.015625 77.48242188 C75.99869354 91.59529054 75.99869354 91.59529054 66.71875 93.5390625 C60.33897648 93.3253072 55.19967363 92.55290487 49.40625 89.78515625 C41.26322347 86.21541399 30.59401764 86.65000593 22.3125 89.4375 C11.57824695 93.93896096 3.42612167 101.90586498 -1.0859375 112.63671875 C-3.73369924 120.56576868 -3.19567806 128.68632887 -1.8125 136.8125 C-1.04738178 145.0555661 -2.32695232 152.0898538 -7.3203125 158.85546875 C-14.51034032 166.69761538 -23.45181024 168.65952934 -33.7421875 169.20703125 C-49.90144047 170.16024888 -64.32675963 171.38425557 -79.0625 178.5 C-79.66408936 178.7902002 -80.26567871 179.08040039 -80.88549805 179.37939453 C-92.64463937 185.49193677 -101.93822395 194.53664251 -111.0625 203.9375 C-133.21957212 226.60352941 -155.23837806 242.13679744 -188 243.375 C-189.09828125 243.41818359 -190.1965625 243.46136719 -191.328125 243.50585938 C-203.26834627 243.91872103 -215.20756341 243.86955249 -227.15307617 243.77563477 C-227.91267136 243.77136978 -228.67226654 243.7671048 -229.45487976 243.76271057 C-230.89038737 243.75442204 -232.32587876 243.7419571 -233.76130676 243.72471619 C-237.40945399 243.65768916 -237.40945399 243.65768916 -240.8125 244.8125 C-243.31769615 186.07956814 -215.43271807 125.01772701 -176.6875 82 C-174.75101161 79.91615855 -172.78587747 77.86139385 -170.8125 75.8125 C-170.18037598 75.15314453 -169.54825195 74.49378906 -168.89697266 73.81445312 C-159.75252521 64.32619695 -150.45515991 55.5862956 -139.8125 47.8125 C-138.66144983 46.95443848 -137.51040823 46.09636549 -136.359375 45.23828125 C-128.16974019 39.20072604 -119.66711724 33.81792698 -110.8125 28.8125 C-110.10528809 28.4103125 -109.39807617 28.008125 -108.66943359 27.59375 C-79.98275121 11.44290177 -47.9953738 1.59924758 -15.375 -2.5 C-14.33678101 -2.63305542 -14.33678101 -2.63305542 -13.27758789 -2.76879883 C-7.85681618 -3.37545559 -4.36281469 -3.39330031 0 0 Z " fill="#FCA64D" transform="translate(240.8125,3.1875)"/>
<path d="M0 0 C6.17215402 4.07595077 9.92651844 9.48874314 11.63671875 16.67578125 C12.69260763 24.70280745 11.19431431 31.84214475 6.9375 38.75 C2.96616192 43.85946546 -3.6240264 47.85232475 -10 49 C-17.98322714 49.79374342 -25.29709237 48.36796839 -31.75 43.4375 C-37.62522722 37.90385576 -40.69653424 30.51440637 -41.13671875 22.515625 C-40.69786487 14.44071362 -37.61012458 7.23985539 -31.5625 1.8125 C-21.20131401 -5.51614375 -11.33596433 -5.97250114 0 0 Z " fill="#FC5639" transform="translate(330,239)"/>
</svg>
